<?xml version="1.0" encoding="utf-8"?>
<!-- Generator: Adobe Illustrator 21.0.0, SVG Export Plug-In . SVG Version: 6.00 Build 0)  -->
<svg version="1.1" id="Layer_1" xmlns="http://www.w3.org/2000/svg" xmlns:xlink="http://www.w3.org/1999/xlink" x="0px" y="0px"
	 viewBox="0 0 239 55.8" style="enable-background:new 0 0 239 55.8;" xml:space="preserve">
<style type="text/css">
	.st0{fill:#1E509A;}
	.st1{fill:#EA431B;}
</style>
<path class="st0" d="M238.8,15h-8.4c-0.8,0-1.7,0.2-2.5,0.5c-0.8,0.3-1.5,0.7-2.1,1.3c-0.6,0.6-1.1,1.2-1.4,1.9
	c-0.3,0.7-0.5,1.5-0.5,2.3v17.8c0,0.1,0,0.1,0.1,0.1c0,0,0.1,0.1,0.1,0.1h6c0.1,0,0.1,0,0.1-0.1s0.1-0.1,0.1-0.1V21
	c0-0.5,0.2-1,0.6-1.4c0.4-0.4,0.9-0.6,1.5-0.6h2.4c1.1,0,2.1-0.4,2.9-1.1c0.8-0.7,1.2-1.7,1.2-2.7c0,0,0-0.1,0-0.1c0,0,0,0,0-0.1
	C238.9,15,238.9,15,238.8,15C238.8,15,238.8,15,238.8,15"/>
<path class="st0" d="M213.3,15h-7.6c-0.7,0-1.5,0.2-2.2,0.5c-0.7,0.3-1.3,0.7-1.8,1.3c-0.5,0.6-0.9,1.2-1.2,1.9
	c-0.3,0.7-0.4,1.5-0.4,2.3v29.8c0,0.1,0,0.1,0.1,0.1c0,0,0.1,0.1,0.1,0.1c1.5,0,2.9-0.6,3.9-1.7c1-1.1,1.6-2.6,1.6-4.1v-6
	c0-0.1,0-0.1,0.1-0.1c0,0,0.1-0.1,0.1-0.1h7.4c0.7,0,1.5-0.1,2.2-0.4c0.7-0.3,1.3-0.7,1.9-1.3c0.5-0.6,1-1.2,1.2-1.9
	c0.3-0.7,0.4-1.5,0.4-2.3V21c0-1.6-0.6-3.1-1.7-4.2C216.3,15.6,214.8,15,213.3,15L213.3,15z M213.3,33c0,0.3,0,0.5-0.1,0.8
	c-0.1,0.2-0.2,0.5-0.4,0.6c-0.2,0.2-0.4,0.3-0.6,0.4c-0.2,0.1-0.5,0.2-0.7,0.2h-3.8c-0.5,0-1-0.2-1.3-0.6c-0.4-0.4-0.6-0.9-0.6-1.4
	V21c0-0.5,0.2-1,0.6-1.4c0.4-0.4,0.8-0.6,1.3-0.6h3.8c0.2,0,0.5,0.1,0.7,0.2c0.2,0.1,0.4,0.2,0.6,0.4c0.2,0.2,0.3,0.4,0.4,0.6
	c0.1,0.2,0.1,0.5,0.1,0.8V33z"/>
<path class="st0" d="M188.3,15h-7.6c-1.5,0-3,0.6-4,1.8c-1.1,1.1-1.7,2.7-1.7,4.2v12c0,1.6,0.6,3.1,1.7,4.2c1.1,1.1,2.5,1.8,4,1.8
	h7.6c1.5,0,3-0.6,4-1.8c1.1-1.1,1.7-2.6,1.7-4.2V21c0-0.8-0.1-1.6-0.4-2.3c-0.3-0.7-0.7-1.4-1.2-1.9c-0.5-0.6-1.2-1-1.8-1.3
	C189.8,15.2,189.1,15,188.3,15z M188.3,33c0,0.3,0,0.5-0.1,0.8c-0.1,0.2-0.2,0.5-0.4,0.7s-0.4,0.3-0.6,0.4s-0.5,0.2-0.7,0.2h-3.8
	c-0.5,0-1-0.2-1.3-0.6c-0.4-0.4-0.6-0.9-0.6-1.4V21c0-0.5,0.2-1,0.6-1.4c0.4-0.4,0.8-0.6,1.3-0.6h3.8c0.5,0,1,0.2,1.3,0.6
	c0.4,0.4,0.6,0.9,0.6,1.4V33z"/>
<path class="st0" d="M172.8,15h-18.1c-1,0-1.9,0.4-2.6,1.1c-0.7,0.7-1.1,1.7-1.1,2.7c0,0.1,0,0.1,0.1,0.1c0,0,0.1,0.1,0.1,0.1h7.7
	c-0.2,0.6-0.3,1.3-0.3,2v17.8c0,0,0,0.1,0,0.1c0,0,0,0,0,0.1s0,0,0.1,0c0,0,0.1,0,0.1,0h5.5c0,0,0.1,0,0.1,0c0,0,0,0,0.1,0
	s0,0,0-0.1c0,0,0-0.1,0-0.1V21c0-0.3,0-0.5,0.1-0.8c0.1-0.2,0.2-0.5,0.4-0.7c0.2-0.2,0.4-0.3,0.6-0.4s0.5-0.2,0.8-0.2h2.8
	c1,0,1.9-0.4,2.6-1.1c0.7-0.7,1.1-1.7,1.1-2.7c0-0.1,0-0.1-0.1-0.1S172.9,15,172.8,15"/>
<path class="st0" d="M93,14c-1.2,0-2.5,0.3-3.5,1c-1.1,0.6-2,1.5-2.6,2.6l-3.7,6.6c0,0-0.1,0.1-0.3,0l-3.7-6.6
	c-0.8-1.4-1.9-2.4-3.4-3c-1.4-0.6-3-0.7-4.5-0.3c-1.5,0.4-2.8,1.3-3.8,2.5C66.5,18,66,19.5,66,21.1v21.7c0,0.1,0,0.1,0.1,0.1
	c0,0,0.1,0.1,0.1,0.1c0.8,0,1.5-0.2,2.2-0.4s1.3-0.7,1.9-1.3c0.5-0.5,1-1.2,1.3-1.9c0.3-0.7,0.4-1.5,0.4-2.2V20.9
	c0-0.3,0-0.5,0.1-0.8c0.1-0.2,0.2-0.5,0.4-0.7c0.2-0.2,0.4-0.3,0.6-0.4c0.2-0.1,0.5-0.2,0.8-0.2c0.3,0,0.6,0.1,0.9,0.2
	c0.3,0.1,0.5,0.3,0.7,0.6l4.4,7.7v7.4c0,0,0,0.1,0,0.1c0,0,0,0,0,0.1c0,0,0,0,0.1,0c0,0,0.1,0,0.1,0h5.6c0,0,0.1,0,0.1,0
	c0,0,0,0,0.1,0c0,0,0,0,0-0.1c0,0,0-0.1,0-0.1v-7.4l4.4-7.7c0.3-0.3,0.6-0.6,1-0.7c0.4-0.1,0.8-0.1,1.2,0s0.7,0.4,1,0.7
	c0.2,0.3,0.4,0.8,0.4,1.2v17.9c0,0.1,0,0.1,0.1,0.1s0.1,0.1,0.1,0.1h5.6c0.1,0,0.1,0,0.1-0.1c0,0,0.1-0.1,0.1-0.1V21.1
	c0-1.9-0.7-3.7-2.1-5C96.6,14.7,94.9,14,93,14"/>
<path class="st0" d="M146.8,25.2c0,0-0.1-0.1,0-0.3c0.7-0.4,1.2-1,1.6-1.7s0.6-1.4,0.6-2.2c0-1.6-0.7-3.1-1.8-4.2
	c-1.2-1.1-2.8-1.8-4.5-1.8H132c-1.1,0-2.1,0.4-2.8,1.1c-0.7,0.7-1.2,1.7-1.2,2.7c0,0,0,0.1,0,0.1c0,0,0,0,0,0.1c0,0,0,0,0.1,0
	c0,0,0.1,0,0.1,0h12.4c0.6,0,1.1,0.2,1.5,0.6c0.4,0.4,0.6,0.9,0.6,1.4c0,0.5-0.2,1-0.6,1.4c-0.4,0.4-0.9,0.6-1.5,0.6h-4.4
	c-1.1,0-2.1,0.4-2.8,1.1c-0.7,0.7-1.2,1.7-1.2,2.7c0,0,0,0.1,0,0.1c0,0,0,0,0,0.1c0,0,0,0,0.1,0c0,0,0.1,0,0.1,0h8.2
	c0.3,0,0.5,0.1,0.8,0.2s0.5,0.2,0.7,0.4c0.2,0.2,0.3,0.4,0.5,0.6c0.1,0.2,0.2,0.5,0.2,0.8v4c0,0.3-0.1,0.5-0.2,0.8
	c-0.1,0.2-0.3,0.5-0.5,0.6s-0.4,0.3-0.7,0.4s-0.5,0.2-0.8,0.2h-12.4c-0.1,0-0.1,0-0.1,0.1c0,0-0.1,0.1-0.1,0.1c0,1,0.4,2,1.2,2.7
	c0.7,0.7,1.8,1.1,2.8,1.1h10.7c1.7,0,3.3-0.6,4.4-1.8c1.2-1.1,1.8-2.6,1.8-4.2v-4c0-0.8-0.2-1.5-0.6-2.2
	C148.1,26.1,147.5,25.6,146.8,25.2"/>
<path class="st0" d="M124.8,15h-5.9c0,0-0.1,0-0.1,0c0,0,0,0-0.1,0c0,0,0,0,0,0.1s0,0.1,0,0.1V33c0,0.5-0.2,1-0.6,1.4
	c-0.4,0.4-0.9,0.6-1.5,0.6h-4.2c-0.6,0-1.1-0.2-1.5-0.6c-0.4-0.4-0.6-0.9-0.6-1.4V15.2c0,0,0-0.1,0-0.1c0,0,0,0,0-0.1c0,0,0,0-0.1,0
	c0,0-0.1,0-0.1,0h-5.9c-0.1,0-0.1,0-0.1,0.1c0,0-0.1,0.1-0.1,0.1V33c0,1.6,0.7,3.1,1.8,4.2c1.2,1.1,2.8,1.8,4.5,1.8h8.2
	c0.1,0,0.1,0,0.2,0.1c0,0,0.1,0.1,0.1,0.1v11.6c0,0.1,0,0.1,0.1,0.1c0,0,0.1,0.1,0.1,0.1c1.6,0,3.2-0.6,4.3-1.7
	c1.1-1.1,1.8-2.6,1.8-4.1v-30c0,0,0-0.1,0-0.1s0,0,0-0.1c0,0,0,0-0.1,0C124.9,15,124.8,15,124.8,15"/>
<path class="st1" d="M47.7,27c0.1,1.4,0,2.8-0.3,4.2c-0.7,4.2-2.7,8-5.8,11c-3.1,2.9-7,4.8-11.2,5.3c-4.2,0.5-8.5-0.3-12.2-2.4
	c-3.7-2.1-6.6-5.3-8.3-9.2l5-2.6l0.9-0.4l2.3-4.6l4.3,9.2l3,6.5l2.7-6.5l5-12l2.6,5.6l0.6,1.2L47.7,27z M31.3,8.5
	c3.6,0.6,7,2.2,9.8,4.7c2.8,2.4,4.8,5.6,5.8,9.1l-7,4.8l-4-8.9l-3-6.5l-2.7,6.6l-5,12l-2.9-6.4l-2.8-6l-2.9,6l-3.5,7l-4,2.6
	c-0.9-3.2-1-6.6-0.3-9.8c0.7-3.2,2.3-6.3,4.5-8.7s5-4.4,8.2-5.5C24.6,8.2,28,7.9,31.3,8.5z M55.5,23.3c0.3,1.5,0.4,3.1,0.4,4.6
	c0,5.5-1.6,10.9-4.7,15.5s-7.4,8.2-12.5,10.3c-5.1,2.1-10.7,2.7-16.2,1.6s-10.4-3.7-14.3-7.6c-2.3-2.4-4.2-5.1-5.6-8.1l4.5-2.3
	c2.2,4.8,5.9,8.6,10.6,11c4.7,2.4,10,3,15.1,1.9c5.1-1.1,9.7-3.9,13-7.9c3.3-4.1,5.1-9.1,5.1-14.3c0-0.8,0-1.6-0.1-2.4L55.5,23.3z
	 M28,0c5.6,0,11,1.7,15.6,4.8c4.6,3.1,8.2,7.5,10.3,12.6l-4.3,2.9c-2-5.6-6.2-10.2-11.6-12.8c-5.4-2.6-11.6-3-17.3-1
	c-5.7,1.9-10.4,6-13.1,11.4c-2.7,5.4-3.2,11.5-1.4,17.3l-4.3,2.8c-1.6-4.2-2.2-8.8-1.6-13.3c0.5-4.5,2.2-8.8,4.7-12.5
	c2.6-3.7,6-6.8,10-8.9C19,1.1,23.4,0,28,0"/>
</svg>
